<svg width="88" height="60" viewBox="0 0 88 60" fill="none" xmlns="http://www.w3.org/2000/svg">
<path d="M84 34C86.2091 34 88 32.2091 88 30C88 27.7909 86.2091 26 84 26V34ZM1.17157 27.1716C-0.390524 28.7337 -0.390524 31.2663 1.17157 32.8284L26.6274 58.2843C28.1895 59.8464 30.7222 59.8464 32.2843 58.2843C33.8464 56.7222 33.8464 54.1895 32.2843 52.6274L9.65685 30L32.2843 7.37258C33.8464 5.81049 33.8464 3.27783 32.2843 1.71573C30.7222 0.153632 28.1895 0.153632 26.6274 1.71573L1.17157 27.1716ZM84 26L4 26V34L84 34V26Z" fill="#00f7ff"/>
</svg>
