<?xml version="1.0" standalone="no"?>
<!DOCTYPE svg PUBLIC "-//W3C//DTD SVG 20010904//EN"
 "http://www.w3.org/TR/2001/REC-SVG-20010904/DTD/svg10.dtd">
<svg version="1.0" xmlns="http://www.w3.org/2000/svg"
 width="48.000000pt" height="48.000000pt" viewBox="0 0 48.000000 48.000000"
 preserveAspectRatio="xMidYMid meet">

<g transform="translate(0.000000,48.000000) scale(0.100000,-0.100000)"
fill="#000000" stroke="none">
<path d="M277 343 c-4 -3 -7 -14 -7 -24 0 -16 -12 -19 -102 -21 l-103 -3 0
-55 0 -55 102 -3 c96 -3 102 -4 105 -25 5 -37 41 -32 94 14 79 68 79 70 1 138
-45 38 -75 50 -90 34z m98 -83 l20 -22 -45 -40 -45 -40 -3 26 -3 26 -105 0
-104 0 0 30 0 30 105 0 105 0 0 26 0 25 28 -19 c15 -11 36 -30 47 -42z"/>
</g>
</svg>
